<?xml version="1.0" encoding="UTF-8" standalone="no"?>
<!-- Created with Inkscape (http://www.inkscape.org/) -->

<svg
   version="1.1"
   id="svg1"
   width="491.49332"
   height="491.49332"
   viewBox="0 0 491.49332 491.49332"
   sodipodi:docname="Medical_(22).eps"
   xmlns:inkscape="http://www.inkscape.org/namespaces/inkscape"
   xmlns:sodipodi="http://sodipodi.sourceforge.net/DTD/sodipodi-0.dtd"
   xmlns="http://www.w3.org/2000/svg"
   xmlns:svg="http://www.w3.org/2000/svg">
  <defs
     id="defs1" />
  <sodipodi:namedview
     id="namedview1"
     pagecolor="#ffffff"
     bordercolor="#000000"
     borderopacity="0.25"
     inkscape:showpageshadow="2"
     inkscape:pageopacity="0.0"
     inkscape:pagecheckerboard="0"
     inkscape:deskcolor="#d1d1d1">
    <inkscape:page
       x="0"
       y="0"
       inkscape:label="1"
       id="page1"
       width="491.49332"
       height="491.49332"
       margin="0"
       bleed="0" />
  </sodipodi:namedview>
  <g
     id="g1"
     inkscape:groupmode="layer"
     inkscape:label="1">
    <path
       id="path1"
       d="m 2904.64,3570.8 c 31.68,-1.99 58.99,22.09 60.98,53.78 1.98,31.68 -22.09,58.99 -53.78,60.97 -2.41,0.16 -844.84,68.13 -486.79,-1192.45 l 55.36,15.52 -55.41,-15.74 c 0.8,-2.83 1.8,-5.55 2.98,-8.15 32.68,-95.87 484.29,-1495.777 -1161.93,-1154.23 -86.82,42.19 -942.308,432.04 -1262.51875,-436.387 -10.93359,-29.824 4.375,-62.871 34.19925,-73.808 29.8242,-10.93 62.8675,4.383 73.7965,34.199 281.188,762.606 1048.223,400.356 1106.383,371.616 5.32,-3.17 11.26,-5.53 17.66,-6.88 l 11.83,56.38 -11.7,-56.25 c 1854.32,-388.921 1334.58,1203.9 1300.63,1303.01 -0.16,0.66 -0.33,1.32 -0.51,1.98 l -0.11,-0.03 c -313.05,1102.35 366.99,1046.59 368.93,1046.47"
       style="fill:#100f0d;fill-opacity:1;fill-rule:nonzero;stroke:none"
       transform="matrix(0.13333333,0,0,-0.13333333,0,491.49333)" />
    <path
       id="path2"
       d="m 3685.55,2911.85 c -1.99,31.68 -29.3,55.76 -60.98,53.78 -31.68,-1.99 -55.77,-29.3 -53.77,-60.98 0.12,-1.94 55.86,-681.98 -1046.48,-368.94 l 0.03,0.11 c -0.65,0.19 -1.32,0.36 -1.97,0.52 -99.11,33.95 -1691.939,553.7 -1303.02,-1300.64 l 56.25,11.7 -56.38,-11.81 c 1.35,-6.42 3.71,-12.35 6.89,-17.68 C 1254.86,1159.76 1617.11,392.715 854.504,111.535 824.68,100.605 809.371,67.5586 820.305,37.7344 831.234,7.91016 864.277,-7.40234 894.102,3.53516 1762.54,323.742 1372.69,1179.24 1330.49,1266.05 988.949,2912.28 2388.85,2460.66 2484.72,2427.99 c 2.6,-1.18 5.32,-2.19 8.16,-2.99 l 15.74,55.41 -15.53,-55.35 C 3753.68,2067 3685.71,2909.44 3685.55,2911.85"
       style="fill:#100f0d;fill-opacity:1;fill-rule:nonzero;stroke:none"
       transform="matrix(0.13333333,0,0,-0.13333333,0,491.49333)" />
    <path
       id="path3"
       d="m 2941.31,3511.54 c -22.49,22.5 -58.96,22.5 -81.45,0 -22.49,-22.49 -22.49,-58.96 0,-81.45 l 574.61,-574.61 c 22.49,-22.49 58.96,-22.49 81.45,0 22.49,22.49 22.49,58.97 0,81.45 l -574.61,574.61"
       style="fill:#100f0d;fill-opacity:1;fill-rule:nonzero;stroke:none"
       transform="matrix(0.13333333,0,0,-0.13333333,0,491.49333)" />
    <path
       id="path4"
       d="m 2719.98,3308.51 c -22.5,22.49 -58.96,22.49 -81.45,0 -22.49,-22.49 -22.49,-58.96 0,-81.46 l 592.9,-592.9 c 22.49,-22.49 58.96,-22.49 81.46,0 22.49,22.49 22.49,58.96 0,81.45 l -592.91,592.91"
       style="fill:#100f0d;fill-opacity:1;fill-rule:nonzero;stroke:none"
       transform="matrix(0.13333333,0,0,-0.13333333,0,491.49333)" />
    <path
       id="path5"
       d="m 2590.33,3013.79 c -22.49,22.49 -58.96,22.49 -81.45,0 -22.49,-22.49 -22.49,-58.96 0,-81.45 l 427.84,-427.84 c 22.48,-22.49 58.96,-22.49 81.45,0 22.49,22.49 22.49,58.96 0,81.45 l -427.84,427.84"
       style="fill:#100f0d;fill-opacity:1;fill-rule:nonzero;stroke:none"
       transform="matrix(0.13333333,0,0,-0.13333333,0,491.49333)" />
    <path
       id="path6"
       d="m 2046.04,2420.56 c -22.48,22.49 -58.95,22.49 -81.45,0 -22.48,-22.49 -22.48,-58.96 0,-81.45 l 378.9,-378.9 c 22.49,-22.48 58.96,-22.48 81.45,0 22.49,22.49 22.49,58.97 0,81.46 l -378.9,378.89"
       style="fill:#100f0d;fill-opacity:1;fill-rule:nonzero;stroke:none"
       transform="matrix(0.13333333,0,0,-0.13333333,0,491.49333)" />
    <path
       id="path7"
       d="m 1656.23,2323.22 c -22.5,22.49 -58.96,22.49 -81.45,0 -22.49,-22.49 -22.49,-58.96 0,-81.45 l 671.37,-671.37 c 22.49,-22.49 58.96,-22.49 81.45,0 22.49,22.49 22.49,58.96 0,81.45 l -671.37,671.37"
       style="fill:#100f0d;fill-opacity:1;fill-rule:nonzero;stroke:none"
       transform="matrix(0.13333333,0,0,-0.13333333,0,491.49333)" />
    <path
       id="path8"
       d="m 1529.16,2025.91 c -22.48,22.49 -58.95,22.49 -81.45,0 -22.48,-22.49 -22.48,-58.96 0,-81.45 l 501.13,-501.12 c 22.49,-22.49 58.96,-22.49 81.45,0 22.49,22.49 22.49,58.96 0,81.45 l -501.13,501.12"
       style="fill:#100f0d;fill-opacity:1;fill-rule:nonzero;stroke:none"
       transform="matrix(0.13333333,0,0,-0.13333333,0,491.49333)" />
    <path
       id="path9"
       d="m 1439.18,1691.52 c -22.48,22.5 -58.95,22.5 -81.45,0 -22.49,-22.48 -22.49,-58.96 0,-81.45 l 256.72,-256.71 c 22.49,-22.49 58.96,-22.49 81.45,0 22.49,22.49 22.49,58.96 0,81.46 l -256.72,256.7"
       style="fill:#100f0d;fill-opacity:1;fill-rule:nonzero;stroke:none"
       transform="matrix(0.13333333,0,0,-0.13333333,0,491.49333)" />
    <path
       id="path10"
       d="m 975.699,1215.88 c -22.492,22.49 -58.961,22.49 -81.449,0 -22.492,-22.49 -22.492,-58.97 0,-81.45 L 1138.8,889.871 c 22.49,-22.488 58.97,-22.488 81.45,0 22.49,22.492 22.49,58.957 0,81.449 l -244.551,244.56"
       style="fill:#100f0d;fill-opacity:1;fill-rule:nonzero;stroke:none"
       transform="matrix(0.13333333,0,0,-0.13333333,0,491.49333)" />
    <path
       id="path11"
       d="m 598.488,1168.72 c -22.492,22.49 -58.961,22.49 -81.453,0 -22.488,-22.49 -22.488,-58.96 0,-81.44 L 1091.64,512.656 c 22.5,-22.488 58.97,-22.488 81.46,0 22.49,22.492 22.49,58.957 0,81.446 L 598.488,1168.72"
       style="fill:#100f0d;fill-opacity:1;fill-rule:nonzero;stroke:none"
       transform="matrix(0.13333333,0,0,-0.13333333,0,491.49333)" />
    <path
       id="path12"
       d="m 341.82,1001.02 c -22.488,22.49 -58.957,22.49 -81.449,0 -22.488,-22.493 -22.488,-58.969 0,-81.457 l 663.57,-663.575 c 22.489,-22.492 58.961,-22.492 81.449,0 22.49,22.489 22.49,58.965 0,81.453 L 341.82,1001.02"
       style="fill:#100f0d;fill-opacity:1;fill-rule:nonzero;stroke:none"
       transform="matrix(0.13333333,0,0,-0.13333333,0,491.49333)" />
  </g>
</svg>
